<?xml version="1.0" encoding="utf-8"?>
<!-- Generator: Adobe Illustrator 24.1.2, SVG Export Plug-In . SVG Version: 6.00 Build 0)  -->
<svg version="1.1" id="AB_Logo" xmlns="http://www.w3.org/2000/svg" xmlns:xlink="http://www.w3.org/1999/xlink" x="0px" y="0px"
	 viewBox="0 0 1000 101.62" style="enable-background:new 0 0 1000 101.62;" xml:space="preserve">
<style type="text/css">
	.st0{fill:#3C289B;}
</style>
<g>
	<path class="st0" d="M56.16,78.03h17.15C65.83,52.25,56.85,26.58,45.8,0.81H28.43C17.72,25.66,8.4,51.44,0,78.03h17.26
		c1.49-5.18,2.99-10.36,4.6-15.54H38.9l4.14-15.08H26.81c3.22-9.44,6.67-18.76,10.24-28.08C44.31,38.67,50.64,58.12,56.16,78.03
		 M143.4,21.41c-8.06,0-13.47,3.45-17.15,9.09c-3.91-5.98-10.59-9.09-18.07-9.09c-6.67,0-11.97,3.68-15.08,9.09l-0.58-7.71h-14.5
		v55.24h16.11V46.95c0-7.36,4.14-11.51,9.9-11.51c5.75,0,9.67,4.03,9.67,10.93v31.65h16.11V47.65c0-8.05,4.49-12.2,10.24-12.2
		c5.18,0,9.55,3.34,9.55,10.82v31.76h16.11V43.96C165.72,29.35,155.36,21.41,143.4,21.41 M229.37,49.83
		c0-15.31-12.2-28.43-28.65-28.43c-15.88,0-29.23,12.2-29.23,29.23c0,16.57,12.66,28.88,29.58,28.88c10.93,0,21.98-5.41,26.35-16.69
		h-16.34c-2.53,2.65-5.98,3.57-10.24,3.57c-5.41,0-12.31-3.34-13.92-10.24h41.89C229.14,54.09,229.37,51.9,229.37,49.83
		 M200.71,33.72c7.37,0,12.77,4.95,14.39,11.39h-28.43C188.17,38.67,193.35,33.72,200.71,33.72 M265.9,21.87
		c-6.22,0-12.31,3.91-14.73,11.51l-0.58-10.59h-14.73v55.24h16.11V51.44c0-8.06,5.29-14.62,15.08-14.62c1.27,0,2.42,0.12,3.68,0.12
		v-14.5C268.89,22.1,267.28,21.87,265.9,21.87 M277.74,16.11h16.34V0h-16.34V16.11z M277.85,78.03h16.23V22.79h-16.23V78.03z
		 M326,79.41c13.93,0,24.05-6.9,24.05-18.3c0-9.09-6.33-14.96-18.42-17.03l-5.18-0.92c-6.1-0.92-8.52-2.3-8.52-5.53
		c0-2.65,2.65-4.37,6.79-4.37c5.07,0,7.71,2.19,8.63,5.99h15.42c-1.38-11.05-9.67-17.84-23.82-17.84
		c-15.77,0-23.13,7.37-23.13,17.61c0,11.28,9.2,15.54,17.95,17.03l5.75,0.92c4.72,0.81,7.14,2.53,7.14,5.18
		c0,2.99-2.53,4.6-7.25,4.6c-4.95,0-7.6-1.61-8.63-5.41h-15.42C302.87,73.88,312.54,79.41,326,79.41 M385.39,79.41
		c17.15,0,30.73-12.43,30.73-29c0-16.57-13.58-29-30.73-29c-16.92,0-30.61,12.43-30.61,29C354.77,66.98,368.35,79.41,385.39,79.41
		 M385.5,65.14c-8.06,0-14.62-6.67-14.62-14.73c0-8.05,6.56-14.73,14.62-14.73c8.06,0,14.62,6.56,14.62,14.73
		C400.12,58.46,393.56,65.14,385.5,65.14 M459.38,22.79v31.07c0,7.37-4.95,11.51-10.82,11.51c-5.75,0-9.78-4.03-9.78-10.93V22.79
		h-16.11v34.07c0,15.31,9.9,22.56,21.87,22.56c7.02,0,12.89-3.68,15.88-9.43l0.58,8.05h14.5V22.79H459.38z M515.15,21.87
		c-6.21,0-12.31,3.91-14.73,11.51l-0.57-10.59h-14.73v55.24h16.11V51.44c0-8.06,5.3-14.62,15.08-14.62c1.27,0,2.42,0.12,3.68,0.12
		v-14.5C518.14,22.1,516.53,21.87,515.15,21.87 M551.45,79.41c12.43,0,25.09-6.79,28.54-22.44h-15.88
		c-1.96,5.07-6.68,8.17-12.54,8.17c-8.17,0-13.7-6.56-13.7-14.73c0-8.05,5.52-14.73,13.7-14.73c5.75,0,10.24,2.88,12.43,8.29h16
		c-2.99-14.39-15.08-22.56-28.54-22.56c-16.8,0-29.69,12.31-29.69,29C521.76,67.21,534.65,79.41,551.45,79.41 M642.52,49.83
		c0-15.31-12.2-28.43-28.66-28.43c-15.88,0-29.23,12.2-29.23,29.23c0,16.57,12.66,28.88,29.58,28.88c10.93,0,21.98-5.41,26.36-16.69
		h-16.34c-2.53,2.65-5.98,3.57-10.24,3.57c-5.41,0-12.31-3.34-13.92-10.24h41.89C642.29,54.09,642.52,51.9,642.52,49.83
		 M613.87,33.72c7.37,0,12.78,4.95,14.39,11.39h-28.43C601.32,38.67,606.5,33.72,613.87,33.72 M693.96,37.52
		c7.48-3.22,11.16-9.32,11.16-16.69c0-11.05-10.01-20.03-27.05-20.03h-28.54v77.22h29c20.6,0,29.81-10.47,29.81-22.44
		C708.35,48.68,704.44,40.74,693.96,37.52 M679.23,63.76h-12.54V15.31h11.16c6.79,0,10.36,3.34,10.36,8.29
		c0,5.64-4.03,8.4-10.47,8.4h-1.5l-3.8,14.39h6.79c6.79,0,11.16,2.99,11.16,8.63S686.02,63.76,679.23,63.76 M771.88,49.83
		c0-15.31-12.2-28.43-28.66-28.43c-15.88,0-29.23,12.2-29.23,29.23c0,16.57,12.66,28.88,29.58,28.88c10.93,0,21.98-5.41,26.36-16.69
		h-16.34c-2.53,2.65-5.98,3.57-10.24,3.57c-5.41,0-12.31-3.34-13.92-10.24h41.89C771.65,54.09,771.88,51.9,771.88,49.83
		 M743.22,33.72c7.37,0,12.77,4.95,14.39,11.39h-28.43C730.67,38.67,735.85,33.72,743.22,33.72 M809.05,21.87
		c-6.21,0-12.31,3.91-14.73,11.51l-0.58-10.59h-14.73v55.24h16.11V51.44c0-8.06,5.29-14.62,15.08-14.62c1.27,0,2.42,0.12,3.68,0.12
		v-14.5C812.04,22.1,810.43,21.87,809.05,21.87 M861.06,22.79l-0.46,5.52c-3.92-4.14-9.55-6.9-16.69-6.9
		c-14.96,0-28.66,11.85-28.66,28.31c0,16.34,13.69,28.31,28.66,28.31c6.67,0,12.08-2.42,15.88-6.22v1.96
		c0,10.25-4.72,14.39-13.35,14.39c-5.75,0-10.36-2.07-12.54-6.79h-15.19c3.22,14.16,14.27,20.26,27.39,20.26
		c19.68,0,29.92-12.66,29.92-28.43V22.79H861.06z M845.76,63.87c-8.17,0-14.62-6.33-14.62-14.15c0-7.83,6.44-14.27,14.62-14.27
		c8.06,0,14.5,6.33,14.5,14.27C860.26,57.54,853.81,63.87,845.76,63.87 M940.04,49.83c0-15.31-12.2-28.43-28.65-28.43
		c-15.88,0-29.23,12.2-29.23,29.23c0,16.57,12.66,28.88,29.58,28.88c10.93,0,21.98-5.41,26.35-16.69h-16.34
		c-2.53,2.65-5.98,3.57-10.24,3.57c-5.41,0-12.31-3.34-13.93-10.24h41.89C939.81,54.09,940.04,51.9,940.04,49.83 M911.39,33.72
		c7.37,0,12.77,4.95,14.39,11.39h-28.43C898.84,38.67,904.02,33.72,911.39,33.72 M978.14,21.41c-7.14,0-12.89,3.68-15.88,9.21
		l-0.58-7.83h-14.5v55.24h16.11V46.95c0-7.36,4.95-11.51,10.7-11.51c5.75,0,9.9,4.03,9.9,10.93v31.65H1000V43.96
		C1000,28.66,989.99,21.41,978.14,21.41"/>
</g>
</svg>
