<?xml version="1.0" encoding="UTF-8" standalone="no"?>
<!DOCTYPE svg PUBLIC "-//W3C//DTD SVG 1.1//EN" "http://www.w3.org/Graphics/SVG/1.1/DTD/svg11.dtd">
<svg width="100%" height="100%" viewBox="0 0 830 250" version="1.1" xmlns="http://www.w3.org/2000/svg" xmlns:xlink="http://www.w3.org/1999/xlink" xml:space="preserve" xmlns:serif="http://www.serif.com/" style="fill-rule:evenodd;clip-rule:evenodd;stroke-linejoin:round;stroke-miterlimit:2;">
    <g id="Layer-1" serif:id="Layer 1" transform="matrix(4.16667,0,0,4.16667,-181.331,-340.241)">
        <g transform="matrix(1,0,0,1,227.908,128.519)">
            <path d="M0,-46.861L-17.301,-39.146L-17.301,0L-6.868,0L-6.868,-33.821L0,-33.821L0,-46.861Z" style="fill:rgb(150,200,219);fill-rule:nonzero;"/>
        </g>
        <g transform="matrix(1,0,0,1,227.908,141.559)">
            <path d="M0,-46.861L0,-13.039L-6.868,-13.039L-6.868,-7.719L14.77,0L14.77,-46.861L0,-46.861Z" style="fill:rgb(0,97,113);fill-rule:nonzero;"/>
        </g>
        <g transform="matrix(1,0,0,1,0,6.537)">
            <rect x="45.362" y="90.107" width="6.142" height="29.249" style="fill:rgb(0,97,113);"/>
        </g>
        <g transform="matrix(1,0,0,1,56.4209,124.461)">
            <path d="M0,-19.232L5.004,-20.663C5.508,-19.78 5.804,-18.854 5.804,-17.971C7.107,-18.895 7.359,-19.065 8.283,-19.569C9.421,-20.159 10.891,-20.496 12.152,-20.496C14.551,-20.496 16.654,-19.232 17.326,-17.381C17.62,-16.581 17.746,-15.654 17.746,-14.308L17.746,1.431L12.196,1.431L12.196,-12.584C12.196,-15.024 11.774,-15.739 10.304,-15.739C9.167,-15.739 7.696,-14.982 6.392,-13.804L6.392,1.431L0.757,1.431L0.757,-14.182C0.757,-16.033 0.504,-17.801 0,-19.232" style="fill:rgb(0,97,113);fill-rule:nonzero;"/>
        </g>
        <g transform="matrix(1,0,0,1,90.314,119.916)">
            <path d="M0,-15.613L-1.429,-11.868L-5.045,-11.868L-5.045,-0.883C-5.045,1.853 -4.541,2.568 -2.607,2.568C-2.103,2.568 -1.599,2.442 -0.589,2.146L0.126,5.513C-1.514,6.187 -2.986,6.481 -4.458,6.481C-7.318,6.481 -9.63,5.22 -10.26,3.325C-10.598,2.399 -10.639,1.979 -10.639,0L-10.639,-11.868L-12.783,-11.868L-12.783,-15.528L-10.639,-15.528C-10.639,-17.633 -10.639,-19.064 -10.43,-20.663L-4.71,-22.094C-4.919,-20.114 -5.045,-17.801 -5.045,-15.613L0,-15.613Z" style="fill:rgb(0,97,113);fill-rule:nonzero;"/>
        </g>
        <g transform="matrix(1,0,0,1,108.185,110.278)">
            <path d="M0,9.891L2.186,13.258C-0.293,15.279 -2.901,16.246 -5.928,16.246C-12.111,16.246 -16.106,11.87 -16.106,5.094C-16.106,1.223 -15.308,-1.346 -13.414,-3.449C-11.647,-5.428 -9.503,-6.355 -6.644,-6.355C-4.162,-6.355 -1.807,-5.511 -0.419,-4.08C1.557,-2.062 2.44,0.844 2.44,5.346L2.44,6.651L-10.008,6.651L-10.008,6.818C-10.008,10.144 -8.368,12.037 -5.467,12.037C-3.532,12.037 -1.725,11.323 0,9.891M-9.923,2.528L-3.405,2.528L-3.405,2.273C-3.405,0.674 -3.573,-0.167 -4.08,-0.967C-4.625,-1.809 -5.423,-2.229 -6.559,-2.229C-8.705,-2.229 -9.923,-0.546 -9.923,2.443L-9.923,2.528Z" style="fill:rgb(0,97,113);fill-rule:nonzero;"/>
        </g>
        <g transform="matrix(1,0,0,1,113.987,124.548)">
            <path d="M0,-19.361L5.048,-20.707C5.55,-19.824 5.846,-18.856 5.928,-17.636C6.729,-18.73 8.075,-19.865 9.125,-20.37C9.588,-20.581 10.345,-20.707 10.976,-20.707C11.817,-20.707 12.196,-20.624 13.079,-20.244L11.522,-15.278C10.976,-15.572 10.513,-15.701 9.882,-15.701C8.621,-15.701 7.485,-15.111 6.433,-13.891L6.433,1.346L0.798,1.346L0.798,-13.048C0.798,-15.953 0.463,-18.141 0,-19.361" style="fill:rgb(0,97,113);fill-rule:nonzero;"/>
        </g>
        <g transform="matrix(1,0,0,1,143.634,123.913)">
            <path d="M0,-17.716L-2.734,-14.012C-3.869,-15.065 -5.089,-15.695 -6.139,-15.695C-8.664,-15.695 -9.799,-13.508 -9.799,-8.458C-9.799,-5.637 -9.462,-3.953 -8.706,-3.029C-8.116,-2.271 -7.148,-1.807 -6.183,-1.807C-4.878,-1.807 -3.702,-2.356 -2.312,-3.575L-1.977,-3.871L0.589,-0.461C-0.252,0.381 -0.631,0.675 -1.388,1.138C-2.901,2.022 -4.584,2.483 -6.644,2.483C-12.574,2.483 -16.021,-1.64 -16.021,-8.625C-16.021,-13.592 -14.129,-16.874 -11.606,-18.599C-10.178,-19.567 -8.075,-20.199 -6.265,-20.199C-4.836,-20.199 -3.323,-19.821 -2.103,-19.232C-1.305,-18.81 -0.927,-18.516 0,-17.716" style="fill:rgb(0,97,113);fill-rule:nonzero;"/>
        </g>
        <g transform="matrix(1,0,0,1,162.304,110.278)">
            <path d="M0,9.891L2.186,13.258C-0.294,15.279 -2.901,16.246 -5.929,16.246C-12.111,16.246 -16.106,11.87 -16.106,5.094C-16.106,1.223 -15.306,-1.346 -13.414,-3.449C-11.647,-5.428 -9.504,-6.355 -6.644,-6.355C-4.162,-6.355 -1.808,-5.511 -0.42,-4.08C1.557,-2.062 2.44,0.844 2.44,5.346L2.44,6.651L-10.008,6.651L-10.008,6.818C-10.008,10.144 -8.368,12.037 -5.468,12.037C-3.532,12.037 -1.725,11.323 0,9.891M-9.923,2.528L-3.405,2.528L-3.405,2.273C-3.405,0.674 -3.573,-0.167 -4.08,-0.967C-4.626,-1.809 -5.424,-2.229 -6.562,-2.229C-8.705,-2.229 -9.923,-0.546 -9.923,2.443L-9.923,2.528Z" style="fill:rgb(0,97,113);fill-rule:nonzero;"/>
        </g>
        <g transform="matrix(1,0,0,1,168.611,134.268)">
            <path d="M0,-29.46L5.004,-30.343C5.215,-29.586 5.341,-28.997 5.382,-28.323C6.35,-29.502 8.494,-30.343 10.68,-30.343C12.195,-30.343 13.751,-29.838 14.93,-29.038C17.241,-27.481 18.924,-24.704 18.924,-19.739C18.924,-15.108 18.209,-12.712 15.938,-10.355C14.466,-8.798 12.53,-7.912 10.175,-7.912C8.494,-7.912 6.896,-8.334 5.676,-9.05C5.761,-8.545 5.761,-7.281 5.761,-7.281L5.761,-0.549L0.337,0.883L0.337,-24.032C0.337,-26.851 0.293,-27.651 0,-29.46M5.802,-13.637C6.559,-13.006 7.778,-12.373 8.914,-12.373C11.691,-12.373 12.783,-14.267 12.783,-19.19C12.783,-21.255 12.615,-22.895 12.237,-23.947C11.817,-25.126 10.932,-25.756 9.547,-25.756C8.157,-25.756 6.811,-25.167 5.802,-24.114L5.802,-13.637Z" style="fill:rgb(0,97,113);fill-rule:nonzero;"/>
        </g>
        <g transform="matrix(1,0,0,1,202.799,119.916)">
            <path d="M0,-15.613L-1.432,-11.868L-5.048,-11.868L-5.048,-0.883C-5.048,1.853 -4.541,2.568 -2.607,2.568C-2.104,2.568 -1.599,2.442 -0.59,2.146L0.126,5.513C-1.514,6.187 -2.986,6.481 -4.459,6.481C-7.318,6.481 -9.63,5.22 -10.261,3.325C-10.598,2.399 -10.639,1.979 -10.639,0L-10.639,-11.868L-12.785,-11.868L-12.785,-15.528L-10.639,-15.528C-10.639,-17.633 -10.639,-19.064 -10.431,-20.663L-4.711,-22.094C-4.922,-20.114 -5.048,-17.801 -5.048,-15.613L0,-15.613Z" style="fill:rgb(0,97,113);fill-rule:nonzero;"/>
        </g>
        <g transform="matrix(1,0,0,1,46.6304,136.884)">
            <path d="M0,-3.578L-1.16,-0.863L1.132,-0.863L0,-3.578ZM-1.466,-0.162L-2.284,1.762L-3.111,1.762L0.017,-5.34L3.065,1.762L2.228,1.762L1.429,-0.162L-1.466,-0.162Z" style="fill:rgb(108,110,112);fill-rule:nonzero;"/>
        </g>
        <g transform="matrix(1,0,0,1,51.1899,132.571)">
            <path d="M0,5.373L1.87,5.373L1.87,6.075L-0.755,6.075L-0.755,-0.702L0,-0.702L0,5.373Z" style="fill:rgb(108,110,112);fill-rule:nonzero;"/>
        </g>
        <g transform="matrix(1,0,0,1,54.5635,137.946)">
            <path d="M0,-5.377L0,-3.364L2.256,-3.364L2.256,-2.662L0,-2.662L0,0.7L-0.755,0.7L-0.755,-6.077L2.328,-6.077L2.328,-5.377L0,-5.377Z" style="fill:rgb(108,110,112);fill-rule:nonzero;"/>
        </g>
        <g transform="matrix(1,0,0,1,59.8691,136.884)">
            <path d="M0,-3.578L-1.159,-0.863L1.133,-0.863L0,-3.578ZM-1.465,-0.162L-2.283,1.762L-3.109,1.762L0.018,-5.34L3.065,1.762L2.229,1.762L1.43,-0.162L-1.465,-0.162Z" style="fill:rgb(108,110,112);fill-rule:nonzero;"/>
        </g>
        <g transform="matrix(1,0,0,1,66.7485,137.322)">
            <path d="M0,-4.132C-0.269,-4.601 -0.593,-4.869 -1.168,-4.869C-1.771,-4.869 -2.291,-4.438 -2.291,-3.818C-2.291,-3.234 -1.689,-2.963 -1.23,-2.757L-0.781,-2.56C0.1,-2.173 0.845,-1.733 0.845,-0.653C0.845,0.532 -0.107,1.439 -1.285,1.439C-2.372,1.439 -3.181,0.74 -3.398,-0.313L-2.66,-0.519C-2.561,0.173 -2.031,0.74 -1.303,0.74C-0.575,0.74 0.091,0.182 0.091,-0.582C0.091,-1.372 -0.531,-1.643 -1.159,-1.93L-1.572,-2.111C-2.364,-2.47 -3.046,-2.875 -3.046,-3.845C-3.046,-4.898 -2.157,-5.571 -1.15,-5.571C-0.394,-5.571 0.243,-5.185 0.604,-4.52L0,-4.132Z" style="fill:rgb(108,110,112);fill-rule:nonzero;"/>
        </g>
        <g transform="matrix(-1,0,0,1,138.196,54.515)">
            <rect x="68.721" y="77.354" width="0.754" height="6.777" style="fill:rgb(108,110,112);"/>
        </g>
        <g transform="matrix(1,0,0,1,77.1538,135.273)">
            <path d="M0,-0.034C0.017,0.883 -0.082,1.639 -0.702,2.357C-1.322,3.077 -2.267,3.488 -3.209,3.488C-5.116,3.488 -6.698,1.907 -6.698,0.002C-6.698,-1.939 -5.116,-3.522 -3.165,-3.522C-1.978,-3.522 -1.017,-2.992 -0.296,-2.055L-0.846,-1.545C-1.412,-2.344 -2.176,-2.82 -3.173,-2.82C-4.721,-2.82 -5.943,-1.517 -5.943,0.011C-5.943,0.73 -5.653,1.413 -5.151,1.926C-4.656,2.42 -3.937,2.789 -3.228,2.789C-2.05,2.789 -0.809,1.926 -0.809,0.667L-2.823,0.667L-2.823,-0.034L0,-0.034Z" style="fill:rgb(108,110,112);fill-rule:nonzero;"/>
        </g>
        <g transform="matrix(1,0,0,1,79.1074,138.924)">
            <path d="M0,-7.442L2.463,-1.753L4.935,-7.442L6.309,-0.278L5.537,-0.278L4.665,-4.863L4.648,-4.863L2.463,0L0.288,-4.863L0.269,-4.863L-0.602,-0.278L-1.376,-0.278L0,-7.442Z" style="fill:rgb(108,110,112);fill-rule:nonzero;"/>
        </g>
        <g transform="matrix(1,0,0,1,88.7656,136.884)">
            <path d="M0,-3.578L-1.158,-0.863L1.133,-0.863L0,-3.578ZM-1.465,-0.162L-2.283,1.762L-3.11,1.762L0.018,-5.34L3.065,1.762L2.23,1.762L1.43,-0.162L-1.465,-0.162Z" style="fill:rgb(108,110,112);fill-rule:nonzero;"/>
        </g>
        <g transform="matrix(1,0,0,1,98.874,135.273)">
            <path d="M0,-0.034C0.017,0.883 -0.082,1.639 -0.702,2.357C-1.322,3.077 -2.267,3.488 -3.21,3.488C-5.116,3.488 -6.698,1.907 -6.698,0.002C-6.698,-1.939 -5.116,-3.522 -3.165,-3.522C-1.98,-3.522 -1.017,-2.992 -0.298,-2.055L-0.847,-1.545C-1.414,-2.344 -2.177,-2.82 -3.174,-2.82C-4.721,-2.82 -5.943,-1.517 -5.943,0.011C-5.943,0.73 -5.656,1.413 -5.152,1.926C-4.657,2.42 -3.937,2.789 -3.229,2.789C-2.05,2.789 -0.81,1.926 -0.81,0.667L-2.824,0.667L-2.824,-0.034L0,-0.034Z" style="fill:rgb(108,110,112);fill-rule:nonzero;"/>
        </g>
        <g transform="matrix(1,0,0,1,100.702,135.511)">
            <path d="M0,-0.506L0.233,-0.506C1.088,-0.506 1.951,-0.667 1.951,-1.719C1.951,-2.834 1.133,-2.942 0.225,-2.942L0,-2.942L0,-0.506ZM0,3.136L-0.754,3.136L-0.754,-3.642L0.225,-3.642C1.51,-3.642 2.705,-3.3 2.705,-1.773C2.705,-0.731 2.049,0.008 1.007,0.098L3.164,3.136L2.238,3.136L0.189,0.16L0,0.16L0,3.136Z" style="fill:rgb(108,110,112);fill-rule:nonzero;"/>
        </g>
        <g transform="matrix(1,0,0,1,105.235,135.255)">
            <path d="M0,0.001C0,1.529 1.241,2.807 2.778,2.807C4.315,2.807 5.556,1.529 5.556,0.001C5.556,-1.536 4.333,-2.803 2.778,-2.803C1.223,-2.803 0,-1.536 0,0.001M6.311,0.01C6.311,1.96 4.711,3.506 2.778,3.506C0.846,3.506 -0.756,1.96 -0.756,0.01C-0.756,-1.931 0.846,-3.505 2.778,-3.505C4.711,-3.505 6.311,-1.931 6.311,0.01" style="fill:rgb(108,110,112);fill-rule:nonzero;"/>
        </g>
        <g transform="matrix(1,0,0,1,113.312,134.726)">
            <path d="M0,1.178C0,1.681 -0.019,2.256 0.296,2.688C0.593,3.102 1.167,3.336 1.663,3.336C2.146,3.336 2.678,3.111 2.993,2.733C3.352,2.302 3.324,1.709 3.324,1.178L3.324,-2.857L4.08,-2.857L4.08,1.385C4.08,2.122 4.027,2.706 3.488,3.264C3.02,3.767 2.346,4.035 1.663,4.035C1.024,4.035 0.367,3.793 -0.09,3.345C-0.685,2.779 -0.755,2.157 -0.755,1.385L-0.755,-2.857L0,-2.857L0,1.178Z" style="fill:rgb(108,110,112);fill-rule:nonzero;"/>
        </g>
        <g transform="matrix(1,0,0,1,119.49,135.538)">
            <path d="M0,-0.561L0.504,-0.561C1.34,-0.561 2.05,-0.812 2.05,-1.783C2.05,-2.888 1.161,-2.969 0.28,-2.969L0,-2.969L0,-0.561ZM0,3.108L-0.754,3.108L-0.754,-3.669L0.361,-3.669C0.944,-3.669 1.546,-3.652 2.041,-3.311C2.544,-2.96 2.805,-2.367 2.805,-1.765C2.805,-1.215 2.581,-0.66 2.157,-0.308C1.7,0.07 1.115,0.141 0.548,0.141L0,0.141L0,3.108Z" style="fill:rgb(108,110,112);fill-rule:nonzero;"/>
        </g>
    </g>
</svg>