<?xml version="1.0" encoding="UTF-8" standalone="no"?>
<!-- Created with Inkscape (http://www.inkscape.org/) -->
<svg
   xmlns:svg="http://www.w3.org/2000/svg"
   xmlns="http://www.w3.org/2000/svg"
   version="1.0"
   width="400"
   height="400"
   id="svg2"
   xml:space="preserve"><defs
     id="defs6" /><g
     transform="matrix(1.25,0,0,-1.25,-483.62535,584.30316)"
     id="g12"><path
       d="m 386.90028,147.44253 320,0 0,320 -320,0 0,-320 z"
       id="path102"
       style="fill:#004e4c;fill-opacity:1;fill-rule:nonzero;stroke:none" /><path
       d="m 634.95883,344.71144 -2.14272,2.44665 c -2.1514,-2.22304 -4.28326,-3.06971 -7.37251,-2.92209 -4.70443,0.22361 -9.02894,3.31069 -9.02894,8.02163 0,3.05234 2.24041,6.30223 5.68135,8.24957 l -2.33376,3.24772 c 0.004,2.59862 2.11233,4.70226 4.7066,4.70877 2.46619,0.007 4.44825,-1.76931 4.7066,-4.22248 0.48846,-1.98206 -3.14787,-4.41569 -3.14787,-4.41569 l 7.47021,-9.22432 c 0,0 0.6795,1.36335 0.6795,2.62901 0.19973,1.39808 -1.07027,3.24772 -1.07027,3.24772 l 0.78154,0.48847 c 0.8662,-1.25264 1.18533,-2.17746 1.26348,-3.69929 0.076,-1.45018 -0.11506,-2.34895 -0.77502,-3.63849 l 4.02492,-4.91718 -3.44311,0 z m -10.87641,13.35996 c 0,0 -4.80646,-1.98206 -4.70877,-5.52287 0.12158,-3.59724 2.4879,-6.64959 6.07212,-6.94918 2.3381,-0.19321 4.80863,0.68168 6.7538,2.4358 l -8.11715,10.03625 z m 0.77937,3.40838 3.01978,2.95682 c 0.11506,1.75195 -1.57394,3.31068 -3.31286,3.05451 -1.42631,-0.21275 -2.41625,-1.31776 -2.46836,-2.76143 l 2.76144,-3.2499 z m 54.36467,6.88839 c 6.70821,0.0174 12.10951,-5.57063 12.04655,-12.27883 -0.0608,-6.77985 -5.7595,-12.33746 -12.53284,-12.04655 -6.59965,0.28222 -11.65143,5.83114 -11.49947,12.43514 0.15414,6.58229 5.40347,11.8707 11.98576,11.89024 z m -0.0955,-1.17014 c -4.90632,0 -8.78145,-5.21242 -8.93342,-10.6224 -0.1563,-5.62925 3.40187,-11.42132 9.02894,-11.26935 5.43604,0.14979 8.62515,5.53806 8.60561,10.97844 -0.0217,5.44255 -3.21516,10.91331 -8.70113,10.91331 z m -13.91572,-5.1169 -1.83445,-0.78588 c -1.28519,3.68408 -4.14432,5.80075 -8.0455,5.95272 -5.39478,0.20841 -9.09189,-5.03658 -9.09189,-10.43354 0,-5.92015 3.29331,-11.46256 8.96381,-11.44954 3.73618,0.009 6.46723,1.67814 8.17358,5.00619 l 1.31125,-1.04856 c -2.36849,-3.61462 -5.42735,-5.2667 -9.74969,-5.26453 -6.75596,0 -12.00747,6.14376 -11.57762,12.8867 0.41682,6.49545 5.73779,11.71873 12.23107,11.34967 4.46129,-0.25183 7.55487,-2.25344 9.61944,-6.21323 z m -118.46602,-17.36969 0,23.18998 2.14272,0 14.94041,-17.30022 0,17.30022 1.36552,0 0,-23.18998 -0.58398,0 -16.40579,19.92054 0,-19.92054 -1.45888,0 z m -8.05635,23.18998 2.85956,0 0,-23.18998 -2.85956,0 0,23.18998 z m -17.7648,-23.18998 0,23.18998 14.51707,0 0,-1.51749 -11.56025,0 0,-8.93124 10.78305,0 0,-1.65426 -10.68536,0 0,-11.08699 -3.05451,0 z m 86.46419,23.18998 1.74543,0 -8.6208,-10.25769 10.17954,-12.93229 -3.30417,0 -9.61727,11.97056 9.61727,11.21942 z m -16.74663,-5.82029 -1.83228,-0.78588 c -1.28302,3.68408 -4.14649,5.80075 -8.0455,5.95272 -5.39478,0.20841 -9.0919,-5.03658 -9.0919,-10.43354 0,-5.92015 3.29115,-11.46256 8.96164,-11.44954 3.74053,0.009 6.4694,1.67814 8.17576,5.00619 l 1.30908,-1.04856 c -2.3685,-3.61462 -5.42735,-5.2667 -9.74752,-5.26453 -6.75596,0 -12.00964,6.14376 -11.57979,12.8867 0.41682,6.49545 5.73779,11.71873 12.23541,11.34967 4.45694,-0.25183 7.5527,-2.25344 9.6151,-6.21323 z m 2.91123,5.82029 3.04083,0 0,-23.18998 -3.04083,0 0,23.18998 z m -87.33691,0 1.74543,0 -8.6208,-10.25769 10.17954,-12.93229 -3.30417,0 -9.61726,11.97056 9.61726,11.21942 z m -16.74663,-5.82029 -1.83227,-0.78588 c -1.2852,3.68408 -4.14433,5.80075 -8.04551,5.95272 -5.39478,0.20841 -9.09406,-5.03658 -9.09406,-10.43354 0,-5.92015 3.29331,-11.46256 8.96381,-11.44954 3.73836,0.009 6.46723,1.67814 8.17576,5.00619 l 1.30907,-1.04856 c -2.36632,-3.61462 -5.42735,-5.2667 -9.74752,-5.26453 -6.75596,0 -12.00964,6.14376 -11.57762,12.8867 0.41465,6.49545 5.73562,11.71873 12.23325,11.34967 4.45694,-0.25183 7.5527,-2.25344 9.61509,-6.21323 z m 2.91123,5.82029 3.04192,0 0,-23.18998 -3.04192,0 0,23.18998 z m -43.34064,-23.18998 0,23.18998 9.22649,0 c 3.40186,0 7.18364,-2.53566 7.0968,-6.2154 -0.0868,-3.77092 -4.21813,-6.04824 -7.75242,-5.78773 l 8.01511,-11.18685 -3.40187,0 -8.96163,11.97056 c 3.53211,-0.65345 9.02676,1.12889 9.22215,5.26887 0.13242,2.77881 -2.50527,4.32886 -5.16684,4.47865 l -5.52721,0 0,-21.71808 -2.75058,0 z m -18.18379,23.18998 14.09808,0 0,-1.73241 -11.21942,0 0,-8.96164 10.69405,0 0,-1.17882 -10.56379,0 0,-10.0102 11.47993,0 0,-1.30691 -14.48885,0 0,23.18998 z m -28.33294,-23.18998 0,23.18998 3.27161,0 8.17793,-17.79302 8.43844,17.79302 2.90906,0 0.002,-23.18998 -2.78097,0 0,18.31622 -8.96164,-18.31622 -9.0919,18.44865 0,-18.44865 -1.9647,0"
       id="path106"
       style="fill:#ffffff;fill-opacity:1;fill-rule:nonzero;stroke:none" /><path
       d="m 643.27787,320.02134 c -1.05073,0 -2.0841,0.18019 -3.11747,0.34301 l -0.12809,2.55519 0.45373,0 c 0.2171,-1.44801 1.59347,-2.0841 2.93728,-2.0841 1.33947,0 2.62684,0.83581 2.62684,2.286 0,1.48492 -1.86484,2.26429 -2.98938,2.8461 -0.58182,0.28874 -1.17882,0.59701 -1.70419,0.99647 -0.85318,0.67082 -1.17882,1.34164 -1.17882,2.42928 0,2.35547 2.06673,3.06319 4.07919,3.06319 0.95956,0 1.86701,-0.12808 2.8092,-0.30827 l 0.12809,-2.48356 -0.45373,0 c -0.23663,1.45019 -1.43282,2.08411 -2.82874,2.08411 -1.14191,0 -2.28382,-0.72293 -2.28382,-1.97556 0,-1.28737 1.43282,-1.92128 2.40974,-2.39237 0.45373,-0.21927 0.89008,-0.41682 1.32427,-0.67082 1.37855,-0.79674 2.39238,-1.55874 2.39238,-3.29983 0,-2.51829 -2.31857,-3.38884 -4.47648,-3.38884 z m -14.71897,11.54723 c -1.05074,0 -1.17882,-0.18236 -1.17882,-1.19619 l 0,-3.33673 c 1.8301,0 3.97065,0.0912 3.97065,2.46618 0,1.59564 -1.43282,2.06674 -2.79183,2.06674 z m 3.19128,-11.36704 -3.62547,6.12856 -0.74463,0 0,-4.27892 c 0,-1.2331 0.45372,-1.48492 1.59564,-1.48492 l 0,-0.36472 -4.78475,0 0,0.36472 c 1.14191,-0.0195 1.5761,0.25182 1.5761,1.48492 l 0,8.37548 c 0,1.2331 -0.43419,1.4871 -1.5761,1.4871 l 0,0.36255 4.80429,0 c 1.86483,0 4.05965,-0.4711 4.05965,-2.77447 0,-1.95818 -1.37854,-2.90037 -3.17174,-3.04582 l 2.39238,-4.05966 c 0.52536,-0.89009 1.05073,-1.8301 2.22955,-1.8301 l 0,-0.36472 -2.75492,0 z m -13.16241,0 -8.48186,0 0,0.36472 c 1.14191,0 1.5761,0.26919 1.5761,1.48492 l 0,8.37548 c 0,1.21356 -0.43419,1.4871 -1.5761,1.4871 l 0,0.36255 8.21049,0 0.12809,-2.21219 -0.45373,0 c -0.23663,1.21355 -0.94436,1.50446 -2.10364,1.50446 l -1.59347,0 c -1.12454,0 -0.99863,-0.52754 -0.99863,-1.52183 l 0,-3.17391 2.3381,0 c 1.19836,0 1.64992,0.27353 1.64992,1.524 l 0.38208,0 0,-3.75356 -0.38208,0 c 0,1.12455 -0.56228,1.524 -1.64992,1.524 l -2.3381,0 0,-3.73619 c 0,-0.37991 -0.0716,-1.28736 0.36472,-1.45018 0.18019,-0.0717 0.43202,-0.0717 0.63391,-0.0717 l 1.73893,0 c 1.30473,0 1.94082,0.36255 2.22955,1.68682 l 0.45373,0 -0.12809,-2.39454 z m -19.26926,0 0,0.36472 c 1.14409,0 1.57827,0.25182 1.57827,1.48492 l 0,8.37548 c 0,1.2331 -0.43418,1.4871 -1.57827,1.4871 l 0,0.36255 4.76955,0 0,-0.36255 c -1.14191,0 -1.57827,-0.27354 -1.57827,-1.4871 l 0,-8.37548 c 0,-1.21573 0.43636,-1.48492 1.57827,-1.48492 l 0,-0.36472 -4.76955,0 z m -10.42268,0 0,0.36472 c 0.30827,0 1.016,-0.0195 1.016,0.43418 0,0.27137 -0.45373,0.81628 -0.61655,1.01383 l -3.44311,4.25939 -0.0369,-4.22248 c 0,-1.2331 0.43419,-1.48492 1.57611,-1.48492 l 0,-0.36472 -4.76739,0 0,0.36472 c 1.14192,0 1.57828,0.25182 1.57828,1.48492 l 0,8.37548 c 0,1.2331 -0.43636,1.4871 -1.57828,1.4871 l 0,0.36255 4.76739,0 0,-0.36255 c -1.14192,0 -1.57611,-0.254 -1.57611,-1.4871 l 0,-3.62764 3.62547,4.02493 c 0.12592,0.14545 0.43419,0.47109 0.43419,0.69036 0,0.37991 -0.81627,0.39945 -1.05073,0.39945 l 0,0.36255 4.20511,0 0,-0.36255 c -1.14192,0 -1.81274,-0.39945 -2.57474,-1.2331 l -3.37147,-3.67974 3.77093,-4.58719 c 0.74246,-0.90746 1.68682,-1.84747 2.93728,-1.84747 l 0,-0.36472 -4.89547,0 z m -13.70297,10.22512 0,-10.22512 -1.34164,0 -5.96358,10.40531 -0.0369,-8.55567 c 0,-1.2331 0.43636,-1.48492 1.57827,-1.48492 l 0,-0.36472 -4.18774,0 0,0.36472 c 1.14191,0 1.5761,0.26919 1.5761,1.48492 l 0,8.37548 c 0,1.21356 -0.43419,1.4871 -1.5761,1.4871 l 0,0.36255 3.29766,0 5.58365,-9.7345 0.0369,7.88485 c 0,1.21356 -0.43636,1.4871 -1.57827,1.4871 l 0,0.36255 4.18774,0 0,-0.36255 c -1.14192,0 -1.5761,-0.254 -1.5761,-1.4871 z m -22.22391,0.0174 -2.02983,-5.52938 4.04229,0 -2.01246,5.52938 z m 1.99292,-10.24249 0,0.36472 c 0.38208,0 1.28737,0.0716 1.28737,0.597 0,0.23447 -0.0717,0.54274 -0.16283,0.762 l -0.851,2.28383 -4.55029,0 -0.77937,-2.15791 c -0.0912,-0.254 -0.21927,-0.57964 -0.21927,-0.85101 0,-0.61655 0.85318,-0.63391 1.28737,-0.63391 l 0,-0.36472 -4.09656,0 0,0.36472 c 1.50446,0 1.70419,0.77719 2.17528,2.01029 l 3.75138,9.87994 1.016,0 3.77093,-10.0254 c 0.39728,-1.03336 0.85318,-1.86483 2.0841,-1.86483 l 0,-0.36472 -4.71311,0 z m -19.12381,6.01784 -0.83364,0 0,-3.78829 c 0,-1.41328 0.0716,-1.52183 1.54137,-1.52183 1.64774,0 3.00892,0.70556 3.00892,2.53783 0,2.37501 -1.73892,2.77229 -3.71665,2.77229 z m 0.43636,5.3492 c -1.27,0 -1.27,-0.32564 -1.27,-1.52183 l 0,-3.11964 0.83364,0 c 1.63255,0 3.1001,0.32781 3.1001,2.32073 0,1.7411 -1.07027,2.32074 -2.66374,2.32074 z m 0.27137,-11.36704 -4.73048,0 0,0.36472 c 1.14191,-0.0195 1.5761,0.26919 1.5761,1.48492 l 0,8.37548 c 0,1.21356 -0.43419,1.50447 -1.5761,1.4871 l 0,0.36255 4.65666,0 c 2.01246,0 4.17038,-0.39946 4.17038,-2.90255 0,-1.45019 -0.81627,-2.3012 -2.13838,-2.71802 1.73893,-0.32564 2.75493,-1.39591 2.75493,-3.20865 0,-2.79183 -2.46619,-3.24555 -4.71311,-3.24555 z m -10.95022,9.60858 c -0.12592,1.46755 -1.08765,1.75846 -2.42712,1.75846 l -0.97909,0 0,-9.5174 c 0,-1.30474 0.57964,-1.48492 1.73892,-1.48492 l 0,-0.36472 -5.09302,0 0,0.36472 c 1.15928,0 1.74109,0.18018 1.74109,1.48492 l 0,9.5174 -1.10718,0 c -1.43282,0 -2.04719,-0.34518 -2.30119,-1.75846 l -0.45373,0 0.12809,2.46619 9.08104,0 0.12591,-2.46619 -0.45372,0 z m -20.24619,0.63391 -2.02983,-5.52938 4.04229,0 -2.01246,5.52938 z m 1.99509,-10.24249 0,0.36472 c 0.37992,0 1.28737,0.0716 1.28737,0.597 0,0.23447 -0.0716,0.54274 -0.16282,0.762 l -0.85318,2.28383 -4.55029,0 -0.77937,-2.15791 c -0.089,-0.254 -0.21709,-0.57964 -0.21709,-0.85101 0,-0.61655 0.85318,-0.63391 1.28737,-0.63391 l 0,-0.36472 -4.09657,0 0,0.36472 c 1.50447,0 1.70419,0.77719 2.17529,2.01029 l 3.75138,9.87994 1.016,0 3.77092,-10.0254 c 0.39728,-1.03336 0.85101,-1.86483 2.0841,-1.86483 l 0,-0.36472 -4.71311,0 z m -13.15806,9.7714 -3.67974,-9.95159 -1.08765,0 -3.79046,10.25986 c -0.37991,1.03337 -0.851,1.63255 -2.01246,1.63255 l 0,0.36255 4.71528,0 0,-0.36255 c -0.52536,0 -1.23309,-0.0369 -1.23309,-0.72727 0,-0.34301 0.14328,-0.70555 0.254,-1.01383 l 2.88084,-7.90439 3.08273,8.33858 c 0.0716,0.2171 0.18019,0.49063 0.18019,0.70773 0,0.57964 -0.92265,0.59918 -1.3221,0.59918 l 0,0.36255 4.07919,0 0,-0.36255 c -1.21572,0 -1.70418,-0.94436 -2.06673,-1.94082 z m -20.84754,-9.7714 0,0.36472 c 1.14192,0 1.57828,0.25182 1.57828,1.48492 l 0,8.37548 c 0,1.2331 -0.43636,1.4871 -1.57828,1.4871 l 0,0.36255 4.76739,0 0,-0.36255 c -1.14192,0 -1.57611,-0.27354 -1.57611,-1.4871 l 0,-8.37548 c 0,-1.21573 0.43419,-1.48492 1.57611,-1.48492 l 0,-0.36472 -4.76739,0 z m -11.92714,11.36704 c -1.05073,0 -1.17882,-0.18236 -1.17882,-1.19619 l 0,-3.33673 c 1.83227,0 3.97065,0.0912 3.97065,2.46618 0,1.59564 -1.43282,2.06674 -2.79183,2.06674 z m 3.19128,-11.36704 -3.62547,6.12856 -0.74463,0 0,-4.27892 c 0,-1.2331 0.45373,-1.48492 1.59564,-1.48492 l 0,-0.36472 -4.78475,0 0,0.36472 c 1.14191,-0.0195 1.5761,0.25182 1.5761,1.48492 l 0,8.37548 c 0,1.2331 -0.43419,1.4871 -1.5761,1.4871 l 0,0.36255 4.80212,0 c 1.86701,0 4.06183,-0.4711 4.06183,-2.77447 0,-1.95818 -1.37855,-2.90037 -3.17175,-3.04582 l 2.39238,-4.05966 c 0.52537,-0.89009 1.05073,-1.8301 2.22955,-1.8301 l 0,-0.36472 -2.75492,0 z m -19.92271,5.82029 0,-3.97065 c 0,-1.21573 0.43419,-1.50446 1.5761,-1.48492 l 0,-0.36472 -4.76521,0 0,0.36472 c 1.13974,-0.0195 1.5761,0.26919 1.5761,1.48492 l 0,8.37548 c 0,1.21356 -0.43636,1.50447 -1.5761,1.4871 l 0,0.36255 4.73047,0 c 2.3012,0 4.29629,-0.36255 4.29629,-3.13918 0,-3.40621 -3.40837,-3.1153 -5.83765,-3.1153 z m 1.54136,5.54675 c -1.43282,0 -1.54136,-0.0543 -1.54136,-1.48709 l 0,-3.35411 0.97909,0 c 1.79537,0 3.15221,0.29091 3.15221,2.40975 0,1.74326 -0.92265,2.43145 -2.58994,2.43145"
       id="path110"
       style="fill:#ffffff;fill-opacity:1;fill-rule:nonzero;stroke:none" /></g></svg>