<?xml version="1.0" encoding="UTF-8" standalone="no"?>
<!-- Created with Inkscape (http://www.inkscape.org/) -->

<svg
   xmlns:dc="http://purl.org/dc/elements/1.1/"
   xmlns:cc="http://creativecommons.org/ns#"
   xmlns:rdf="http://www.w3.org/1999/02/22-rdf-syntax-ns#"
   xmlns:svg="http://www.w3.org/2000/svg"
   xmlns="http://www.w3.org/2000/svg"
   version="1.1"
   width="100.98379"
   height="100.985"
   id="svg2"
   xml:space="preserve"><metadata
     id="metadata8"><rdf:RDF><cc:Work
         rdf:about=""><dc:format>image/svg+xml</dc:format><dc:type
           rdf:resource="http://purl.org/dc/dcmitype/StillImage" /><dc:title></dc:title></cc:Work></rdf:RDF></metadata><defs
     id="defs6">


</defs><path
     d="m 0,100.985 100.98379,0 0,-100.985 L 0,0 0,100.985 z"
     id="path14"
     style="fill:#e3e1e0;fill-opacity:1;fill-rule:nonzero;stroke:none" /><g
     transform="matrix(1.25,0,0,-1.25,16.619,40.60363)"
     id="g16"><path
       d="m 0,0 54.196,0 0,-15.822 -49.45,0 0,9.493 L 0,-6.329 0,0 z"
       id="path18"
       style="fill:#00aa8a;fill-opacity:1;fill-rule:nonzero;stroke:none" /></g><g
     transform="matrix(1.25,0,0,-1.25,82.3865,42.58163)"
     id="g20"><path
       d="m 0,0 -9.032,0 -5.897,-12.657 8.595,0 0,7.12 1.582,0 0,-7.12 4.752,0 L 0,0 z"
       id="path22"
       style="fill:#ffffff;fill-opacity:1;fill-rule:nonzero;stroke:none" /></g><g
     transform="matrix(1.25,0,0,-1.25,51.23,58.40275)"
     id="g24"><path
       d="m 0,0 8.414,0 5.899,12.657 -7.984,0 0,-7.12 -1.582,0 0,7.12 L 0,12.657 0,0 z"
       id="path26"
       style="fill:#ffffff;fill-opacity:1;fill-rule:nonzero;stroke:none" /></g><g
     transform="matrix(1.25,0,0,-1.25,49.2555,42.58163)"
     id="g28"><path
       d="m 0,0 -8.703,0 0,-4.746 -4.749,0 0,-7.911 13.452,0 0,3.164 -4.749,0 0,1.583 4.749,0 0,3.164 -4.749,0 0,1.582 4.749,0 L 0,0 z"
       id="path30"
       style="fill:#ffffff;fill-opacity:1;fill-rule:nonzero;stroke:none" /></g><g
     transform="matrix(1.25,0,0,-1.25,36.3989,42.58163)"
     id="g32"><path
       d="m 0,0 -14.241,0 0,-3.164 4.746,0 0,-9.493 4.746,0 0,9.493 4.749,0 L 0,0 z"
       id="path34"
       style="fill:#ffffff;fill-opacity:1;fill-rule:nonzero;stroke:none" /></g></svg>